<svg width="233" height="1279" viewBox="0 0 233 1279" fill="none" xmlns="http://www.w3.org/2000/svg">
<path d="M231.5 1.00001L175.676 91.3589C173.563 94.7799 171.158 98.0125 168.49 101.021L86.5763 193.359C59.0054 224.439 64.4156 272.554 98.2002 296.735L171.349 349.09C204.205 372.606 210.385 418.978 184.834 450.278L82.849 575.21C64.3117 597.918 61.8869 629.772 76.7733 655.024L158.545 793.738C169.269 811.931 171.207 833.994 163.818 853.778L98 1030L72.3508 1140.66C66.5837 1165.54 74.8253 1191.59 93.855 1208.62L125 1236.5" stroke="#FD9E78" stroke-width="2" stroke-dasharray="9 9"/>
<g clip-path="url(#clip0_931_7632)">
<path d="M150.231 1266.17L146.347 1228.35C146.309 1227.97 146.179 1227.61 145.968 1227.3C145.758 1226.99 145.473 1226.73 145.141 1226.56C144.808 1226.38 144.436 1226.29 144.06 1226.29C143.683 1226.29 143.313 1226.39 142.982 1226.57L133.566 1231.66L130.241 1225.84C130.128 1225.64 129.96 1225.48 129.758 1225.38C129.556 1225.28 129.328 1225.24 129.104 1225.27C128.88 1225.3 128.669 1225.39 128.498 1225.54C128.327 1225.69 128.204 1225.89 128.145 1226.1L125.417 1236.08L110.965 1243.9C110.606 1244.09 110.306 1244.38 110.095 1244.73C109.884 1245.08 109.771 1245.48 109.766 1245.88C109.762 1246.29 109.866 1246.69 110.069 1247.05C110.272 1247.4 110.565 1247.7 110.919 1247.9L146.82 1268.39C147.185 1268.6 147.601 1268.7 148.021 1268.69C148.441 1268.68 148.849 1268.55 149.201 1268.32C149.553 1268.09 149.835 1267.77 150.017 1267.39C150.198 1267.01 150.271 1266.59 150.229 1266.17L150.231 1266.17ZM145.55 1262.19L125.664 1239.79L130.494 1237.17L145.55 1262.19Z" fill="#FD9E78"/>
</g>
<defs>
<clipPath id="clip0_931_7632">
<rect width="54.907" height="54.907" fill="white" transform="matrix(0.964562 0.263856 0.263856 -0.964562 100 1263.96)"/>
</clipPath>
</defs>
</svg>
