<svg width="169" height="54" viewBox="0 0 169 54" fill="none" xmlns="http://www.w3.org/2000/svg">
<g clip-path="url(#clip0_168_12472)">
<path d="M14.1904 4.41735C18.0061 2.22826 22.4451 0.966492 27.173 0.966492C36.507 0.966492 44.6857 5.87675 49.2767 13.2345C48.4102 13.2801 47.5741 13.2953 46.7228 13.2649C46.4644 13.2649 46.2059 13.2497 45.9323 13.2497L45.157 13.2041C44.8985 13.2041 44.6401 13.1889 44.3817 13.1585C44.1232 13.1281 43.8648 13.1129 43.6064 13.0977C42.5726 12.9761 41.5541 12.8697 40.5508 12.6721C38.5289 12.3376 36.5222 11.8664 34.5764 11.1975C33.6034 10.8478 32.6305 10.4222 31.6424 10.0269C30.6542 9.61645 29.6205 9.2212 28.602 8.81074C27.5682 8.40029 26.5345 7.98983 25.5159 7.56417C24.4822 7.13852 23.4637 6.71286 22.4147 6.34801C22.2779 6.30241 22.1563 6.2416 22.0195 6.19599C21.8827 6.15039 21.761 6.10478 21.6242 6.05917C21.3658 5.96796 21.0922 5.87675 20.8337 5.77033C20.5753 5.67912 20.3016 5.60311 20.028 5.4967C19.7544 5.40549 19.4959 5.29907 19.2223 5.22306C18.675 5.05584 18.1278 4.88862 17.5653 4.7822C17.2764 4.72139 17.0028 4.66059 16.714 4.61498C16.4251 4.58458 16.1363 4.53897 15.8627 4.50857C15.5738 4.46296 15.285 4.46296 14.9961 4.44776C14.7073 4.41735 14.4489 4.41735 14.1904 4.41735Z" fill="#FC9C73"/>
<path d="M3.15368 17.8712C3.01687 17.9168 2.86485 17.9624 2.72803 18.008C4.20262 14.0098 6.63495 10.4678 9.73617 7.67058C10.2226 7.59457 10.6939 7.48816 11.1804 7.42735C11.4388 7.39695 11.682 7.35134 11.9405 7.32094C12.1989 7.30574 12.4573 7.27533 12.7006 7.24493L13.0806 7.19932C13.2174 7.19932 13.339 7.18412 13.4607 7.16892C13.7191 7.15372 13.9775 7.13851 14.2208 7.10811C14.7376 7.07771 15.2545 7.0169 15.7562 6.98649C16.273 6.95609 16.7899 6.89528 17.322 6.88008C17.8541 6.83447 18.3709 6.84967 18.903 6.83447C19.1766 6.83447 19.4351 6.84967 19.6935 6.86488C19.9519 6.88008 20.2256 6.89528 20.484 6.94089C21.0009 7.0321 21.5481 7.09291 22.0498 7.26013C24.1173 7.8074 25.9871 8.96276 27.7506 10.2397C28.6323 10.8782 29.514 11.5471 30.4565 12.1552C31.3839 12.7633 32.3872 13.3105 33.4209 13.8122C35.5036 14.7851 37.7231 15.5604 40.0186 15.8341L40.8851 15.9405C41.174 15.9557 41.4628 15.9709 41.7517 15.9861C42.3293 16.0317 42.907 16.0165 43.4847 16.0013C44.0624 15.9709 44.64 15.9557 45.2025 15.8797L46.0538 15.7733C46.3427 15.7277 46.6163 15.6821 46.9051 15.6212C47.194 15.5756 47.4676 15.5148 47.7413 15.4388L48.5622 15.2412C49.079 15.074 49.6111 14.9372 50.1128 14.7395C51.3137 16.9894 52.1954 19.437 52.6971 22.0213C51.9826 22.1125 51.2681 22.2037 50.5536 22.2645C50.204 22.2949 49.8695 22.3253 49.5199 22.371L48.4862 22.4318C48.1365 22.4622 47.8021 22.4926 47.4524 22.4926C47.1028 22.5078 46.7683 22.523 46.4187 22.5382C45.0505 22.5534 43.6975 22.5838 42.3293 22.523C39.6082 22.447 36.9022 22.2493 34.2114 21.7781C32.8737 21.5348 31.5207 21.2004 30.1525 20.8964C28.7843 20.5923 27.3705 20.2883 25.9567 19.9842C24.5429 19.6802 23.1292 19.3762 21.7154 19.0569C20.3016 18.7377 18.8878 18.4032 17.4588 18.1296C17.2764 18.0992 17.1092 18.0536 16.9267 18.008C16.7443 17.9624 16.5619 17.9472 16.3947 17.9016C16.0298 17.8255 15.6802 17.7647 15.3153 17.6887C14.9505 17.6127 14.5856 17.5671 14.236 17.4911C13.8711 17.4303 13.5063 17.3391 13.1414 17.2935C12.4117 17.1871 11.6668 17.0654 10.9219 17.0198C10.5571 16.9894 10.177 16.959 9.79697 16.9438C9.41692 16.9438 9.05207 16.9438 8.67202 16.9438L8.10955 16.959L7.54707 17.0046C7.16702 17.035 6.80217 17.0806 6.42212 17.1263C6.05727 17.1719 5.67722 17.2631 5.31237 17.3239C4.94752 17.3999 4.58268 17.4759 4.21783 17.5823C3.86818 17.6735 3.51853 17.7647 3.15368 17.8712Z" fill="#FC9C73"/>
<path d="M44.3663 44.7483C44.8984 44.8396 45.4457 44.9004 45.9929 44.9916C41.2499 49.9474 34.5762 53.0335 27.1728 53.0335C21.7305 53.0335 16.6986 51.3612 12.5181 48.5184C13.415 48.4576 14.3119 48.3208 15.1936 48.1384C16.4858 47.88 17.7324 47.5151 18.9637 47.1959C21.4265 46.527 23.874 45.8733 26.3519 45.4172C27.5833 45.1892 28.8146 44.9916 30.0156 44.8091C30.6237 44.7027 31.2166 44.6571 31.8094 44.5659C32.4023 44.4747 33.0104 44.4291 33.6033 44.3683C36.0052 44.1859 38.3919 44.2619 40.7786 44.4139C41.3715 44.4291 41.9644 44.5051 42.5725 44.5507C42.8765 44.5659 43.1654 44.6115 43.4694 44.6419C43.7582 44.6875 44.0623 44.7179 44.3663 44.7483Z" fill="#FC9C73"/>
<path d="M51.785 35.4903C50.8881 38.0747 49.6111 40.4766 47.9997 42.6201C45.7802 41.7688 43.4543 41.2215 41.0676 40.9631C38.4376 40.6894 35.7773 40.8719 33.1929 41.3279L32.2352 41.5255C31.916 41.5864 31.5967 41.6472 31.2775 41.7384C30.639 41.9056 30.0005 42.0576 29.3924 42.2857C28.1611 42.6961 26.9753 43.213 25.82 43.7298C24.6494 44.2467 23.5092 44.7636 22.3235 45.1892C21.1529 45.6149 19.952 45.9645 18.7358 46.1774C17.5196 46.3902 16.2731 46.451 15.0569 46.3598C14.7529 46.3446 14.4488 46.3294 14.1448 46.2838C13.8408 46.2382 13.5519 46.223 13.2479 46.1622C12.9438 46.1014 12.655 46.071 12.3662 46.0101C12.0773 45.9797 11.7733 45.8885 11.4844 45.8429C10.5267 45.6605 9.56898 45.4781 8.62646 45.2653C5.61645 42.2248 3.36655 38.4395 2.15039 34.2134C2.89529 34.6086 3.67059 34.9583 4.4611 35.2775C6.87822 36.2656 9.44737 36.9041 12.0621 37.1626C14.6769 37.4362 17.322 37.269 19.9064 36.8129L20.8641 36.6305C21.1833 36.5697 21.5026 36.5089 21.8218 36.4177C22.4603 36.2504 23.0836 36.0984 23.7069 35.8856C24.9382 35.4751 26.124 34.9735 27.2946 34.4718C29.6205 33.4533 31.9464 32.4955 34.3939 32.0547C35.6101 31.8419 36.8566 31.7658 38.0728 31.8419C38.3768 31.8571 38.6809 31.8723 38.9849 31.9179C39.289 31.9483 39.593 31.9787 39.8818 32.0243C40.1859 32.0699 40.4747 32.1155 40.7788 32.1611C41.0676 32.1915 41.3716 32.2675 41.6605 32.3131C42.831 32.5259 43.9864 32.754 45.1417 33.0276C45.4306 33.0884 45.7194 33.1796 45.9931 33.2556C46.2819 33.3317 46.5707 33.4077 46.8444 33.4989L47.6957 33.7725C47.9693 33.8789 48.2582 33.9701 48.5318 34.0766C49.6263 34.5022 50.7057 34.9583 51.785 35.4903Z" fill="#FC9C73"/>
<path d="M53.1988 27.0076C53.1988 29.3639 52.8796 31.6594 52.2867 33.8333C51.4202 33.134 50.4624 32.5107 49.4743 31.9786C48.3037 31.3401 47.0724 30.8689 45.7954 30.4888C44.5336 30.0936 43.1959 29.8959 41.8733 29.8503C40.5507 29.8047 39.2129 29.9719 37.9208 30.2152C36.6286 30.4584 35.382 30.8081 34.1507 31.1273C31.6879 31.781 29.2556 32.4499 26.7777 32.9211C25.5463 33.1644 24.3149 33.3772 23.114 33.5596C22.5059 33.666 21.913 33.7269 21.3049 33.8181C20.7121 33.9093 20.104 33.9549 19.5111 34.0157C17.1092 34.2133 14.6921 34.1373 12.3053 33.9853C11.6973 33.9701 11.1044 33.8789 10.5115 33.8333C10.2075 33.8181 9.91861 33.7725 9.61457 33.7269L8.73285 33.6508C8.13997 33.5444 7.53189 33.4836 6.93901 33.3772C6.34613 33.2556 5.73805 33.1796 5.14517 33.0428C3.97462 32.7995 2.81926 32.5107 1.64871 32.1914C1.31426 30.5192 1.13184 28.7862 1.13184 27.0228C1.13184 25.1833 1.32946 23.3743 1.69431 21.6412C1.80073 21.6108 1.90714 21.5804 2.01355 21.55C2.3328 21.4436 2.68244 21.398 3.00169 21.3068C3.33613 21.2308 3.65537 21.1244 3.98982 21.0636C4.32426 21.0027 4.65871 20.9267 4.99315 20.8507C5.3276 20.7595 5.66204 20.7139 5.99649 20.6531C6.33093 20.5923 6.66538 20.5315 6.99982 20.4555C7.66871 20.3491 8.3376 20.1818 9.00649 20.0754C9.34093 20.0146 9.67538 19.9386 10.025 19.8778C10.3595 19.8018 10.7091 19.7714 11.0436 19.6954C11.7277 19.5586 12.4117 19.4825 13.111 19.3913C13.4607 19.3305 13.8103 19.3305 14.16 19.3001C14.5096 19.2849 14.8593 19.2545 15.2089 19.2545C15.9082 19.2697 16.6075 19.2545 17.3068 19.3609C18.7054 19.4977 20.0736 19.8626 21.4114 20.3187C22.7491 20.7747 24.0413 21.3676 25.3487 21.9757C26.6409 22.599 27.933 23.2374 29.2708 23.8151C30.6086 24.3928 32.0072 24.8641 33.4514 25.2745C36.3245 26.0802 39.3345 26.6123 42.3293 26.5667C42.7094 26.5515 43.0742 26.5667 43.4543 26.5363C43.8344 26.5211 44.1992 26.4907 44.5793 26.4603C45.3242 26.4147 46.069 26.3083 46.8139 26.2018C47.5588 26.065 48.2885 25.9586 49.0182 25.7762L50.0976 25.5178C50.4624 25.4113 50.8121 25.3201 51.1769 25.2137L51.709 25.0617L52.2411 24.8793L53.1076 24.5752C53.1532 25.3353 53.1988 26.1562 53.1988 27.0076Z" fill="#FC9C73"/>
</g>
<g clip-path="url(#clip1_168_12472)">
<path d="M78.8175 19.6456V34.9232H78.7362L68.4564 25.6591L68.5173 34.334H65.5918V19.0767H65.7137L75.9529 28.483L75.892 19.6456H78.8175Z" fill="#FC9C73"/>
<path d="M85.786 31.5406V28.3713H92.084V25.588H82.9012V34.3442H93.1811V31.5406H85.786ZM92.8966 19.6557H82.8809V22.439H92.8966V19.6557Z" fill="#FC9C73"/>
<path d="M105.838 20.9966C106.813 21.8905 107.321 23.0891 107.321 24.6128C107.321 25.4864 107.158 26.3193 106.813 27.071C106.468 27.843 105.919 28.4728 105.167 28.9604C104.395 29.448 103.42 29.6918 102.201 29.6918H100.129V34.3442H97.2441V19.6557H101.693C103.461 19.6557 104.842 20.1027 105.838 20.9966ZM103.481 26.5022C103.806 26.2584 104.05 25.974 104.192 25.6286C104.334 25.3035 104.416 24.9785 104.416 24.6738C104.416 24.1455 104.253 23.658 103.948 23.1704C103.644 22.6828 103.055 22.439 102.181 22.439H100.109V26.8679H102.161C102.709 26.8882 103.156 26.7663 103.481 26.5022Z" fill="#FC9C73"/>
<path d="M121.278 19.6659V22.4492H117.702V34.334H114.817V22.4695H111.384V19.6659H121.278Z" fill="#FC9C73"/>
<path d="M128.632 30.1693C128.916 30.5959 129.282 30.9413 129.749 31.2054C130.217 31.4695 130.704 31.6117 131.253 31.6117C131.822 31.6117 132.35 31.4695 132.837 31.2054C133.325 30.9413 133.691 30.5959 133.955 30.1693C134.219 29.7426 134.361 29.2957 134.361 28.8284V19.5847H137.205V28.8894C137.205 29.9458 136.941 30.8803 136.413 31.7336C135.885 32.5869 135.153 33.237 134.26 33.7043C133.345 34.1715 132.35 34.4153 131.253 34.4153C130.156 34.4153 129.16 34.1715 128.266 33.7043C127.372 33.237 126.641 32.5666 126.133 31.7336C125.605 30.8803 125.341 29.9458 125.341 28.8894V19.5847H128.226V28.8284C128.226 29.316 128.368 29.763 128.632 30.1693Z" fill="#FC9C73"/>
<path d="M154.474 19.6456V34.9232H154.393L144.133 25.6591L144.194 34.334H141.269V19.0767H141.39L151.63 28.483L151.569 19.6456H154.474Z" fill="#FC9C73"/>
<path d="M161.442 31.5406V28.3713H167.74V25.588H158.557V34.3442H168.837V31.5406H161.442ZM168.553 19.6557H158.537V22.439H168.553V19.6557Z" fill="#FC9C73"/>
</g>
<defs>
<clipPath id="clip0_168_12472">
<rect width="54.3307" height="52.067" fill="white" transform="translate(0 0.966492)"/>
</clipPath>
<clipPath id="clip1_168_12472">
<rect width="103.408" height="15.8465" fill="white" transform="translate(65.5918 19.0767)"/>
</clipPath>
</defs>
</svg>
