<svg width="70" height="52" viewBox="0 0 70 52" fill="none" xmlns="http://www.w3.org/2000/svg">
<path opacity="0.1" d="M15.9099 20.7375C15.1318 20.7375 14.385 20.8556 13.6417 20.9633C13.8825 20.1574 14.1302 19.3376 14.5281 18.6012C14.9259 17.5313 15.547 16.6039 16.1647 15.6695C16.6811 14.6586 17.5919 13.9743 18.2619 13.1094C18.9634 12.2688 19.9195 11.7095 20.6768 11.0114C21.42 10.2819 22.3936 9.91717 23.1683 9.40307C23.9779 8.94108 24.6828 8.43046 25.4366 8.18731L27.3175 7.41616L28.9716 6.73186L27.2791 0L25.1958 0.500199C24.5293 0.666932 23.7162 0.861455 22.7915 1.09419C21.8458 1.26787 20.8373 1.74375 19.7136 2.17796C18.6039 2.67121 17.3197 3.00468 16.1263 3.79666C14.9259 4.55391 13.5405 5.1861 12.3191 6.2004C11.1361 7.24596 9.7089 8.15257 8.65503 9.48296C7.50346 10.7265 6.36585 12.0326 5.48298 13.5193C4.46052 14.9365 3.76609 16.4927 3.03327 18.0315C2.37024 19.5703 1.83633 21.1439 1.40013 22.6723C0.57309 25.736 0.203191 28.6469 0.0601165 31.1375C-0.0585304 33.6315 0.0112619 35.7053 0.157826 37.2059C0.21017 37.9145 0.307879 38.6023 0.377672 39.0782L0.464911 39.6617L0.555641 39.6409C1.17631 42.5269 2.6051 45.179 4.67675 47.2904C6.74839 49.4018 9.37823 50.8863 12.262 51.5721C15.1458 52.2579 18.1658 52.117 20.9725 51.1657C23.7792 50.2145 26.2581 48.4916 28.1222 46.1966C29.9864 43.9015 31.1597 41.128 31.5065 38.1969C31.8532 35.2658 31.3593 32.2968 30.0817 29.6335C28.8042 26.9701 26.7952 24.7212 24.2873 23.1469C21.7794 21.5726 18.8749 20.7373 15.9099 20.7375ZM54.2957 20.7375C53.5175 20.7375 52.7707 20.8556 52.0274 20.9633C52.2682 20.1574 52.516 19.3376 52.9138 18.6012C53.3116 17.5313 53.9328 16.6039 54.5504 15.6695C55.0669 14.6586 55.9777 13.9743 56.6477 13.1094C57.3491 12.2688 58.3052 11.7095 59.0625 11.0114C59.8058 10.2819 60.7794 9.91717 61.5541 9.40307C62.3637 8.94108 63.0686 8.43046 63.8223 8.18731L65.7032 7.41616L67.3573 6.73186L65.6648 0L63.5815 0.500199C62.915 0.666932 62.1019 0.861455 61.1772 1.09419C60.2315 1.26787 59.223 1.74375 58.0994 2.17796C56.9932 2.67468 55.7055 3.00468 54.512 3.80013C53.3116 4.55738 51.9262 5.18958 50.7049 6.20387C49.5219 7.24943 48.0946 8.15604 47.0408 9.48296C45.8892 10.7265 44.7516 12.0326 43.8687 13.5193C42.8463 14.9365 42.1518 16.4927 41.419 18.0315C40.756 19.5703 40.2221 21.1439 39.7859 22.6723C38.9588 25.736 38.5889 28.6469 38.4459 31.1375C38.3272 33.6315 38.397 35.7053 38.5436 37.2059C38.5959 37.9145 38.6936 38.6023 38.7634 39.0782L38.8507 39.6617L38.9414 39.6409C39.5621 42.5269 40.9908 45.179 43.0625 47.2904C45.1341 49.4018 47.764 50.8863 50.6478 51.5721C53.5316 52.2579 56.5515 52.117 59.3583 51.1657C62.165 50.2145 64.6438 48.4916 66.508 46.1966C68.3721 43.9015 69.5455 41.128 69.8922 38.1969C70.239 35.2658 69.745 32.2968 68.4675 29.6335C67.1899 26.9701 65.181 24.7212 62.673 23.1469C60.1651 21.5726 57.2607 20.7373 54.2957 20.7375Z" fill="black"/>
</svg>
