<svg width="70" height="52" viewBox="0 0 70 52" fill="none" xmlns="http://www.w3.org/2000/svg">
<path opacity="0.1" d="M54.0901 31.2625C54.8682 31.2625 55.615 31.1444 56.3583 31.0367C56.1175 31.8426 55.8698 32.6624 55.4719 33.3988C55.0741 34.4687 54.453 35.3961 53.8353 36.3305C53.3189 37.3414 52.4081 38.0257 51.7381 38.8906C51.0366 39.7312 50.0805 40.2905 49.3232 40.9886C48.58 41.7181 47.6064 42.0828 46.8317 42.5969C46.0221 43.0589 45.3172 43.5695 44.5634 43.8127L42.6825 44.5838L41.0284 45.2681L42.7209 52L44.8042 51.4998C45.4707 51.3331 46.2838 51.1385 47.2085 50.9058C48.1542 50.7321 49.1627 50.2562 50.2864 49.822C51.3961 49.3288 52.6803 48.9953 53.8737 48.2033C55.0741 47.4461 56.4595 46.8139 57.6809 45.7996C58.8639 44.754 60.2911 43.8474 61.345 42.517C62.4965 41.2735 63.6342 39.9674 64.517 38.4807C65.5395 37.0635 66.2339 35.5073 66.9667 33.9685C67.6298 32.4297 68.1637 30.8561 68.5999 29.3277C69.4269 26.264 69.7968 23.3531 69.9399 20.8625C70.0585 18.3685 69.9887 16.2947 69.8422 14.7941C69.7898 14.0855 69.6921 13.3977 69.6223 12.9218L69.5351 12.3383L69.4444 12.3591C68.8237 9.47314 67.3949 6.82104 65.3233 4.7096C63.2516 2.59817 60.6218 1.11368 57.738 0.427868C54.8542 -0.257938 51.8342 -0.117046 49.0275 0.834251C46.2208 1.78555 43.7419 3.50838 41.8778 5.80343C40.0136 8.09849 38.8403 10.872 38.4935 13.8031C38.1468 16.7342 38.6407 19.7032 39.9183 22.3665C41.1958 25.0299 43.2048 27.2788 45.7127 28.8531C48.2206 30.4274 51.1251 31.2627 54.0901 31.2625ZM15.7043 31.2625C16.4825 31.2625 17.2293 31.1444 17.9726 31.0367C17.7318 31.8426 17.484 32.6624 17.0862 33.3988C16.6884 34.4687 16.0672 35.3961 15.4496 36.3305C14.9331 37.3414 14.0223 38.0257 13.3523 38.8906C12.6509 39.7312 11.6948 40.2905 10.9375 40.9886C10.1942 41.7181 9.22062 42.0828 8.44592 42.5969C7.63633 43.0589 6.93143 43.5695 6.17768 43.8127L4.29678 44.5838L2.6427 45.2681L4.33516 52L6.41846 51.4998C7.08498 51.3331 7.89805 51.1385 8.8228 50.9058C9.76849 50.7321 10.777 50.2562 11.9006 49.822C13.0068 49.3253 14.2945 48.9953 15.488 48.1999C16.6884 47.4426 18.0738 46.8104 19.2951 45.7961C20.4781 44.7506 21.9054 43.844 22.9592 42.517C24.1108 41.2735 25.2484 39.9674 26.1313 38.4807C27.1537 37.0635 27.8482 35.5073 28.581 33.9685C29.244 32.4297 29.7779 30.8561 30.2141 29.3277C31.0412 26.264 31.4111 23.3531 31.5541 20.8625C31.6728 18.3685 31.603 16.2947 31.4564 14.7941C31.4041 14.0855 31.3064 13.3977 31.2366 12.9218L31.1493 12.3383L31.0586 12.3591C30.4379 9.47314 29.0092 6.82104 26.9375 4.7096C24.8659 2.59817 22.236 1.11368 19.3522 0.427868C16.4684 -0.257938 13.4485 -0.117046 10.6417 0.834251C7.83502 1.78555 5.35621 3.50838 3.49204 5.80343C1.62788 8.09849 0.454544 10.872 0.10778 13.8031C-0.238983 16.7342 0.254982 19.7032 1.53254 22.3665C2.8101 25.0299 4.81904 27.2788 7.32697 28.8531C9.83491 30.4274 12.7393 31.2627 15.7043 31.2625Z" fill="black"/>
</svg>
