<svg width="76" height="76" viewBox="0 0 76 76" fill="none" xmlns="http://www.w3.org/2000/svg">
<g filter="url(#filter0_d_169_5009)">
<rect x="13" y="11" width="50" height="50" rx="25" fill="#FD9E78"/>
<path d="M49.2997 25.285C49.0618 25.3431 25.6521 34.2972 25.391 34.4307C24.8687 34.6976 24.8687 35.6493 25.3968 35.9221C25.4838 35.9685 26.9114 36.4676 28.5653 37.0247L31.5655 38.046L38.6568 33.7111C42.5507 31.326 45.7946 29.3762 45.8643 29.3762C45.9397 29.3704 45.9803 29.4052 45.9803 29.4865C45.9803 29.5619 44.309 31.1403 40.7169 34.4481C37.8212 37.1117 35.3955 39.3459 35.3317 39.4097C35.2272 39.52 35.1982 39.7463 35.0125 42.3055C34.9022 43.8375 34.8094 45.1374 34.8094 45.1954C34.8094 45.3811 35.0705 45.59 35.3027 45.59C35.5 45.59 35.6218 45.4856 37.2293 43.9071L38.9412 42.23L39.6492 42.7697C41.7615 44.383 44.9416 46.7739 45.1215 46.8783C45.3652 47.0292 45.9049 47.0408 46.1602 46.9073C46.3459 46.8087 46.6013 46.5533 46.6941 46.3734C46.7289 46.3096 47.7097 41.9167 48.8761 36.6185C50.3617 29.8637 51 26.8751 51 26.6371C51 26.2309 50.8607 25.906 50.588 25.6448C50.2514 25.3257 49.7291 25.1806 49.2997 25.285Z" fill="white"/>
</g>
<defs>
<filter id="filter0_d_169_5009" x="0" y="0" width="76" height="76" filterUnits="userSpaceOnUse" color-interpolation-filters="sRGB">
<feFlood flood-opacity="0" result="BackgroundImageFix"/>
<feColorMatrix in="SourceAlpha" type="matrix" values="0 0 0 0 0 0 0 0 0 0 0 0 0 0 0 0 0 0 127 0" result="hardAlpha"/>
<feOffset dy="2"/>
<feGaussianBlur stdDeviation="6.5"/>
<feComposite in2="hardAlpha" operator="out"/>
<feColorMatrix type="matrix" values="0 0 0 0 0.976471 0 0 0 0 0.443137 0 0 0 0 0.635294 0 0 0 0.74 0"/>
<feBlend mode="normal" in2="BackgroundImageFix" result="effect1_dropShadow_169_5009"/>
<feBlend mode="normal" in="SourceGraphic" in2="effect1_dropShadow_169_5009" result="shape"/>
</filter>
</defs>
</svg>
