<svg width="1255" height="331" viewBox="0 0 1255 331" fill="none" xmlns="http://www.w3.org/2000/svg">
<path d="M6.99957 325.5L88.5486 238.515C94.1396 232.551 100.732 227.613 108.027 223.924L242.098 156.124C267.316 143.372 297.729 147.033 319.2 165.407L445.677 273.639C474.218 298.063 516.948 295.605 542.5 268.069L639.556 163.48C664.924 136.142 707.27 133.494 735.846 157.458L848.241 251.71C873.306 272.73 909.586 273.587 935.616 253.775L1204 49.5" stroke="#FD9E78" stroke-width="2" stroke-dasharray="9 9"/>
<g clip-path="url(#clip0_219_8831)">
<path d="M1234.72 13.8624L1230.33 56.5748C1230.29 56.9978 1230.14 57.4036 1229.91 57.7561C1229.67 58.1087 1229.35 58.3971 1228.97 58.5959C1228.6 58.7946 1228.18 58.8975 1227.75 58.8954C1227.33 58.8933 1226.91 58.7863 1226.53 58.5838L1215.9 52.8282L1212.15 59.4073C1212.02 59.6289 1211.83 59.8079 1211.6 59.9217C1211.37 60.0355 1211.12 60.0791 1210.86 60.047C1210.61 60.0148 1210.37 59.9083 1210.18 59.741C1209.99 59.5736 1209.85 59.3529 1209.78 59.1067L1206.7 47.8463L1190.38 39.0129C1189.98 38.7937 1189.64 38.4702 1189.4 38.0759C1189.16 37.6817 1189.03 37.231 1189.03 36.7705C1189.02 36.3101 1189.14 35.8566 1189.37 35.4571C1189.6 35.0575 1189.93 34.7264 1190.33 34.498L1230.87 11.3565C1231.28 11.1216 1231.75 11.0049 1232.22 11.019C1232.7 11.0331 1233.16 11.1775 1233.56 11.4365C1233.95 11.6954 1234.27 12.0588 1234.48 12.4869C1234.68 12.9149 1234.77 13.3911 1234.72 13.8631L1234.72 13.8624ZM1229.43 18.3614L1206.98 43.6563L1212.43 46.61L1229.43 18.3614Z" fill="#FD9E78"/>
</g>
<defs>
<clipPath id="clip0_219_8831">
<rect width="62" height="62" fill="white" transform="translate(1178 16.3591) rotate(-15.299)"/>
</clipPath>
</defs>
</svg>
